w200b400r100.ufo
<glyph name="_17" format="2">
  <advance width="200"/>
  <unicode hex="0111"/>
  
  <outline>
    <component base="cap" xOffset="0" yOffset="0" />
    <component base="cap" xOffset="0" yOffset="-230" />
    <contour>
      <point x="0" y="200" type="line"/>
      <point x="0" y="-30" type="line"/>
      <point x="400" y="-30" type="line"/>
      <point x="400" y="200" type="line"/>
    </contour>
  </outline>
</glyph>
<glyph name="_32" format="2">
  <advance width="200"/>
  <unicode hex="0120"/>
  <unicode hex="0071"/>
  <outline>
    <component base="cap" xOffset="0" yOffset="0" />
    <component base="cap" xOffset="0" yOffset="-80" />
    <contour>
      <point x="0" y="200" type="line"/>
      <point x="0" y="120" type="line"/>
      <point x="400" y="120" type="line"/>
      <point x="400" y="200" type="line"/>
    </contour>
  </outline>
</glyph>
<glyph name="_36" format="2">
  <advance width="200"/>
  <unicode hex="0124"/>
  <unicode hex="0073"/>
  <outline>
    <component base="cap" xOffset="0" yOffset="0" />
    <component base="cap" xOffset="0" yOffset="-40" />
    <contour>
      <point x="0" y="200" type="line"/>
      <point x="0" y="160" type="line"/>
      <point x="400" y="160" type="line"/>
      <point x="400" y="200" type="line"/>
    </contour>
  </outline>
</glyph>
<glyph name="_44" format="2">
  <advance width="200"/>
  <unicode hex="012C"/>
  <unicode hex="0077"/>
  <outline>
    <component base="cap" xOffset="0" yOffset="0" />
    <component base="cap" xOffset="0" yOffset="40" />
    <contour>
      <point x="0" y="200" type="line"/>
      <point x="0" y="240" type="line"/>
      <point x="400" y="240" type="line"/>
      <point x="400" y="200" type="line"/>
    </contour>
  </outline>
</glyph>
<glyph name="_64" format="2">
  <advance width="200"/>
  <unicode hex="0140"/>
  <unicode hex="0047"/>
  <outline>
    <component base="cap" xOffset="0" yOffset="0" />
    <component base="cap" xOffset="0" yOffset="240" />
    <contour>
      <point x="0" y="200" type="line"/>
      <point x="0" y="440" type="line"/>
      <point x="400" y="440" type="line"/>
      <point x="400" y="200" type="line"/>
    </contour>
  </outline>
</glyph>
<glyph name="_79" format="2">
  <advance width="200"/>
  <unicode hex="014F"/>
  
  <outline>
    <component base="cap" xOffset="0" yOffset="0" />
    <component base="cap" xOffset="0" yOffset="390" />
    <contour>
      <point x="0" y="200" type="line"/>
      <point x="0" y="590" type="line"/>
      <point x="400" y="590" type="line"/>
      <point x="400" y="200" type="line"/>
    </contour>
  </outline>
</glyph>
<glyph name="_11.center" format="2">
  <advance width="200"/>
  <unicode hex="040B"/>
  
  <outline>
    <component base="cap" xOffset="0" yOffset="445" />
    <component base="cap" xOffset="0" yOffset="155" />
    <contour>
      <point x="0" y="645" type="line"/>
      <point x="0" y="355" type="line"/>
      <point x="400" y="355" type="line"/>
      <point x="400" y="645" type="line"/>
    </contour>
  </outline>
</glyph>
<glyph name="_19.center" format="2">
  <advance width="200"/>
  <unicode hex="0413"/>
  
  <outline>
    <component base="cap" xOffset="0" yOffset="405" />
    <component base="cap" xOffset="0" yOffset="195" />
    <contour>
      <point x="0" y="605" type="line"/>
      <point x="0" y="395" type="line"/>
      <point x="400" y="395" type="line"/>
      <point x="400" y="605" type="line"/>
    </contour>
  </outline>
</glyph>
<glyph name="_21.center" format="2">
  <advance width="200"/>
  <unicode hex="0415"/>
  
  <outline>
    <component base="cap" xOffset="0" yOffset="395" />
    <component base="cap" xOffset="0" yOffset="205" />
    <contour>
      <point x="0" y="595" type="line"/>
      <point x="0" y="405" type="line"/>
      <point x="400" y="405" type="line"/>
      <point x="400" y="595" type="line"/>
    </contour>
  </outline>
</glyph>
<glyph name="_22.center" format="2">
  <advance width="200"/>
  <unicode hex="0416"/>
  
  <outline>
    <component base="cap" xOffset="0" yOffset="390" />
    <component base="cap" xOffset="0" yOffset="210" />
    <contour>
      <point x="0" y="590" type="line"/>
      <point x="0" y="410" type="line"/>
      <point x="400" y="410" type="line"/>
      <point x="400" y="590" type="line"/>
    </contour>
  </outline>
</glyph>
<glyph name="_26.center" format="2">
  <advance width="200"/>
  <unicode hex="041A"/>
  
  <outline>
    <component base="cap" xOffset="0" yOffset="370" />
    <component base="cap" xOffset="0" yOffset="230" />
    <contour>
      <point x="0" y="570" type="line"/>
      <point x="0" y="430" type="line"/>
      <point x="400" y="430" type="line"/>
      <point x="400" y="570" type="line"/>
    </contour>
  </outline>
</glyph>
<glyph name="_27.center" format="2">
  <advance width="200"/>
  <unicode hex="041B"/>
  
  <outline>
    <component base="cap" xOffset="0" yOffset="365" />
    <component base="cap" xOffset="0" yOffset="235" />
    <contour>
      <point x="0" y="565" type="line"/>
      <point x="0" y="435" type="line"/>
      <point x="400" y="435" type="line"/>
      <point x="400" y="565" type="line"/>
    </contour>
  </outline>
</glyph>
<glyph name="_28.center" format="2">
  <advance width="200"/>
  <unicode hex="041C"/>
  
  <outline>
    <component base="cap" xOffset="0" yOffset="360" />
    <component base="cap" xOffset="0" yOffset="240" />
    <contour>
      <point x="0" y="560" type="line"/>
      <point x="0" y="440" type="line"/>
      <point x="400" y="440" type="line"/>
      <point x="400" y="560" type="line"/>
    </contour>
  </outline>
</glyph>
<glyph name="_29.center" format="2">
  <advance width="200"/>
  <unicode hex="041D"/>
  
  <outline>
    <component base="cap" xOffset="0" yOffset="355" />
    <component base="cap" xOffset="0" yOffset="245" />
    <contour>
      <point x="0" y="555" type="line"/>
      <point x="0" y="445" type="line"/>
      <point x="400" y="445" type="line"/>
      <point x="400" y="555" type="line"/>
    </contour>
  </outline>
</glyph>
<glyph name="_33.center" format="2">
  <advance width="200"/>
  <unicode hex="0421"/>
  
  <outline>
    <component base="cap" xOffset="0" yOffset="335" />
    <component base="cap" xOffset="0" yOffset="265" />
    <contour>
      <point x="0" y="535" type="line"/>
      <point x="0" y="465" type="line"/>
      <point x="400" y="465" type="line"/>
      <point x="400" y="535" type="line"/>
    </contour>
  </outline>
</glyph>
<glyph name="_39.center" format="2">
  <advance width="200"/>
  <unicode hex="0427"/>
  
  <outline>
    <component base="cap" xOffset="0" yOffset="305" />
    <component base="cap" xOffset="0" yOffset="295" />
    <contour>
      <point x="0" y="505" type="line"/>
      <point x="0" y="495" type="line"/>
      <point x="400" y="495" type="line"/>
      <point x="400" y="505" type="line"/>
    </contour>
  </outline>
</glyph>
<glyph name="_46.center" format="2">
  <advance width="200"/>
  <unicode hex="042E"/>
  
  <outline>
    <component base="cap" xOffset="0" yOffset="270" />
    <component base="cap" xOffset="0" yOffset="330" />
    <contour>
      <point x="0" y="470" type="line"/>
      <point x="0" y="530" type="line"/>
      <point x="400" y="530" type="line"/>
      <point x="400" y="470" type="line"/>
    </contour>
  </outline>
</glyph>
<glyph name="_55.center" format="2">
  <advance width="200"/>
  <unicode hex="0437"/>
  
  <outline>
    <component base="cap" xOffset="0" yOffset="225" />
    <component base="cap" xOffset="0" yOffset="375" />
    <contour>
      <point x="0" y="425" type="line"/>
      <point x="0" y="575" type="line"/>
      <point x="400" y="575" type="line"/>
      <point x="400" y="425" type="line"/>
    </contour>
  </outline>
</glyph>
<glyph name="_59.center" format="2">
  <advance width="200"/>
  <unicode hex="043B"/>
  
  <outline>
    <component base="cap" xOffset="0" yOffset="205" />
    <component base="cap" xOffset="0" yOffset="395" />
    <contour>
      <point x="0" y="405" type="line"/>
      <point x="0" y="595" type="line"/>
      <point x="400" y="595" type="line"/>
      <point x="400" y="405" type="line"/>
    </contour>
  </outline>
</glyph>
<glyph name="_64.center" format="2">
  <advance width="200"/>
  <unicode hex="0440"/>
  
  <outline>
    <component base="cap" xOffset="0" yOffset="180" />
    <component base="cap" xOffset="0" yOffset="420" />
    <contour>
      <point x="0" y="380" type="line"/>
      <point x="0" y="620" type="line"/>
      <point x="400" y="620" type="line"/>
      <point x="400" y="380" type="line"/>
    </contour>
  </outline>
</glyph>
<glyph name="_80.center" format="2">
  <advance width="200"/>
  <unicode hex="0450"/>
  
  <outline>
    <component base="cap" xOffset="0" yOffset="100" />
    <component base="cap" xOffset="0" yOffset="500" />
    <contour>
      <point x="0" y="300" type="line"/>
      <point x="0" y="700" type="line"/>
      <point x="400" y="700" type="line"/>
      <point x="400" y="300" type="line"/>
    </contour>
  </outline>
</glyph>
<glyph name="_83.center" format="2">
  <advance width="200"/>
  <unicode hex="0453"/>
  
  <outline>
    <component base="cap" xOffset="0" yOffset="85" />
    <component base="cap" xOffset="0" yOffset="515" />
    <contour>
      <point x="0" y="285" type="line"/>
      <point x="0" y="715" type="line"/>
      <point x="400" y="715" type="line"/>
      <point x="400" y="285" type="line"/>
    </contour>
  </outline>
</glyph>
<glyph name="_84.center" format="2">
  <advance width="200"/>
  <unicode hex="0454"/>
  
  <outline>
    <component base="cap" xOffset="0" yOffset="80" />
    <component base="cap" xOffset="0" yOffset="520" />
    <contour>
      <point x="0" y="280" type="line"/>
      <point x="0" y="720" type="line"/>
      <point x="400" y="720" type="line"/>
      <point x="400" y="280" type="line"/>
    </contour>
  </outline>
</glyph>
<glyph name="_91.center" format="2">
  <advance width="200"/>
  <unicode hex="045B"/>
  
  <outline>
    <component base="cap" xOffset="0" yOffset="45" />
    <component base="cap" xOffset="0" yOffset="555" />
    <contour>
      <point x="0" y="245" type="line"/>
      <point x="0" y="755" type="line"/>
      <point x="400" y="755" type="line"/>
      <point x="400" y="245" type="line"/>
    </contour>
  </outline>
</glyph>
<glyph name="_93.center" format="2">
  <advance width="200"/>
  <unicode hex="045D"/>
  
  <outline>
    <component base="cap" xOffset="0" yOffset="35" />
    <component base="cap" xOffset="0" yOffset="565" />
    <contour>
      <point x="0" y="235" type="line"/>
      <point x="0" y="765" type="line"/>
      <point x="400" y="765" type="line"/>
      <point x="400" y="235" type="line"/>
    </contour>
  </outline>
</glyph>
<glyph name="_94.center" format="2">
  <advance width="200"/>
  <unicode hex="045E"/>
  
  <outline>
    <component base="cap" xOffset="0" yOffset="30" />
    <component base="cap" xOffset="0" yOffset="570" />
    <contour>
      <point x="0" y="230" type="line"/>
      <point x="0" y="770" type="line"/>
      <point x="400" y="770" type="line"/>
      <point x="400" y="230" type="line"/>
    </contour>
  </outline>
</glyph>
<glyph name="_95.center" format="2">
  <advance width="200"/>
  <unicode hex="045F"/>
  
  <outline>
    <component base="cap" xOffset="0" yOffset="25" />
    <component base="cap" xOffset="0" yOffset="575" />
    <contour>
      <point x="0" y="225" type="line"/>
      <point x="0" y="775" type="line"/>
      <point x="400" y="775" type="line"/>
      <point x="400" y="225" type="line"/>
    </contour>
  </outline>
</glyph>
<glyph name="_102.center" format="2">
  <advance width="200"/>
  <unicode hex="0466"/>
  
  <outline>
    <component base="cap" xOffset="0" yOffset="-10" />
    <component base="cap" xOffset="0" yOffset="610" />
    <contour>
      <point x="0" y="190" type="line"/>
      <point x="0" y="810" type="line"/>
      <point x="400" y="810" type="line"/>
      <point x="400" y="190" type="line"/>
    </contour>
  </outline>
</glyph>
<glyph name="_15.clip.center" format="2">
  <advance width="200"/>
  
  <outline>
    <contour>
        <point x="0.000" y="541.250"/>

        <point x="33.750" y="575.000"/>
        <point x="75.000" y="575.000" type="curve" smooth="yes"/>
        <point x="325.000" y="575.000" type="line"/>
        <point x="366.250" y="575.000"/>

        <point x="400.000" y="541.250"/>
        <point x="400.000" y="500.000" type="curve" smooth="yes"/>
        <point x="400.000" y="500.000" type="line"/>
        <point x="400.000" y="458.750"/>

        <point x="366.250" y="425.000"/>
        <point x="325.000" y="425.000" type="curve" smooth="yes"/>
        <point x="75.000" y="425.000" type="line"/>
        <point x="33.750" y="425.000"/>

        <point x="0.000" y="458.750"/>
        <point x="0.000" y="500.000" type="curve" smooth="yes"/>
        <point x="0.000" y="500.000" type="line"/>
    </contour>
  </outline>
</glyph>
<glyph name="_17.clip.center" format="2">
  <advance width="200"/>
  
  <outline>
    <contour>
        <point x="0.000" y="546.750"/>

        <point x="38.250" y="585.000"/>
        <point x="85.000" y="585.000" type="curve" smooth="yes"/>
        <point x="315.000" y="585.000" type="line"/>
        <point x="361.750" y="585.000"/>

        <point x="400.000" y="546.750"/>
        <point x="400.000" y="500.000" type="curve" smooth="yes"/>
        <point x="400.000" y="500.000" type="line"/>
        <point x="400.000" y="453.250"/>

        <point x="361.750" y="415.000"/>
        <point x="315.000" y="415.000" type="curve" smooth="yes"/>
        <point x="85.000" y="415.000" type="line"/>
        <point x="38.250" y="415.000"/>

        <point x="0.000" y="453.250"/>
        <point x="0.000" y="500.000" type="curve" smooth="yes"/>
        <point x="0.000" y="500.000" type="line"/>
    </contour>
  </outline>
</glyph>
<glyph name="_17.clip" format="2">
  <advance width="200"/>
  
  <outline>
    <contour>
        <point x="0.000" y="131.750"/>

        <point x="38.250" y="170.000"/>
        <point x="85.000" y="170.000" type="curve" smooth="yes"/>
        <point x="315.000" y="170.000" type="line"/>
        <point x="361.750" y="170.000"/>

        <point x="400.000" y="131.750"/>
        <point x="400.000" y="85.000" type="curve" smooth="yes"/>
        <point x="400.000" y="85.000" type="line"/>
        <point x="400.000" y="38.250"/>

        <point x="361.750" y="0.000"/>
        <point x="315.000" y="0.000" type="curve" smooth="yes"/>
        <point x="85.000" y="0.000" type="line"/>
        <point x="38.250" y="0.000"/>

        <point x="0.000" y="38.250"/>
        <point x="0.000" y="85.000" type="curve" smooth="yes"/>
        <point x="0.000" y="85.000" type="line"/>
    </contour>
  </outline>
</glyph>
<glyph name="_19.clip.center" format="2">
  <advance width="200"/>
  
  <outline>
    <contour>
        <point x="0.000" y="552.250"/>

        <point x="42.750" y="595.000"/>
        <point x="95.000" y="595.000" type="curve" smooth="yes"/>
        <point x="305.000" y="595.000" type="line"/>
        <point x="357.250" y="595.000"/>

        <point x="400.000" y="552.250"/>
        <point x="400.000" y="500.000" type="curve" smooth="yes"/>
        <point x="400.000" y="500.000" type="line"/>
        <point x="400.000" y="447.750"/>

        <point x="357.250" y="405.000"/>
        <point x="305.000" y="405.000" type="curve" smooth="yes"/>
        <point x="95.000" y="405.000" type="line"/>
        <point x="42.750" y="405.000"/>

        <point x="0.000" y="447.750"/>
        <point x="0.000" y="500.000" type="curve" smooth="yes"/>
        <point x="0.000" y="500.000" type="line"/>
    </contour>
  </outline>
</glyph>
<glyph name="_4.clip.center" format="2">
  <advance width="200"/>
  
  <outline>
    <contour>
        <point x="0.000" y="511.000"/>

        <point x="9.000" y="520.000"/>
        <point x="20.000" y="520.000" type="curve" smooth="yes"/>
        <point x="380.000" y="520.000" type="line"/>
        <point x="391.000" y="520.000"/>

        <point x="400.000" y="511.000"/>
        <point x="400.000" y="500.000" type="curve" smooth="yes"/>
        <point x="400.000" y="500.000" type="line"/>
        <point x="400.000" y="489.000"/>

        <point x="391.000" y="480.000"/>
        <point x="380.000" y="480.000" type="curve" smooth="yes"/>
        <point x="20.000" y="480.000" type="line"/>
        <point x="9.000" y="480.000"/>

        <point x="0.000" y="489.000"/>
        <point x="0.000" y="500.000" type="curve" smooth="yes"/>
        <point x="0.000" y="500.000" type="line"/>
    </contour>
  </outline>
</glyph>
<glyph name="_5.clip" format="2">
  <advance width="200"/>
  
  <outline>
    <contour>
        <point x="0.000" y="38.750"/>

        <point x="11.250" y="50.000"/>
        <point x="25.000" y="50.000" type="curve" smooth="yes"/>
        <point x="375.000" y="50.000" type="line"/>
        <point x="388.750" y="50.000"/>

        <point x="400.000" y="38.750"/>
        <point x="400.000" y="25.000" type="curve" smooth="yes"/>
        <point x="400.000" y="25.000" type="line"/>
        <point x="400.000" y="11.250"/>

        <point x="388.750" y="0.000"/>
        <point x="375.000" y="0.000" type="curve" smooth="yes"/>
        <point x="25.000" y="0.000" type="line"/>
        <point x="11.250" y="0.000"/>

        <point x="0.000" y="11.250"/>
        <point x="0.000" y="25.000" type="curve" smooth="yes"/>
        <point x="0.000" y="25.000" type="line"/>
    </contour>
  </outline>
</glyph>
